<svg width="296" height="253" viewBox="0 0 296 253" fill="none" xmlns="http://www.w3.org/2000/svg">
<path d="M233.539 86C233.539 133.496 195.035 172 147.539 172C100.042 172 61.5388 133.496 61.5388 86C61.5388 38.5035 100.042 0 147.539 0C195.035 0 233.539 38.5035 233.539 86Z" fill="url(#paint0_linear_85_23)"/>
<path d="M102.509 120.052L124.353 149L135.608 103.077L106.49 105.779C104.935 111.353 104.064 114.478 102.509 120.052Z" fill="black"/>
<path d="M107.26 103.018C104.257 104.116 101.026 105.31 97.5388 106.61L106.49 105.779L107.26 103.018Z" fill="black"/>
<path d="M164.939 100.355L177.17 99L193.055 41.7141L196.539 25L154.47 23.0878C153.184 23.0293 151.895 23.0548 150.616 23.1951C149.983 23.2645 149.325 23.3432 148.864 23.4147C140.367 24.734 133.919 28.3962 128.569 34.2475C121.743 41.7141 120.674 56.8627 116.373 70.3435L107.26 103.018C121.942 97.6519 131.165 94.5966 138.134 92.771L139.332 87.8818L146.456 60.4823C144.782 58.8453 144.538 56.3138 146.527 53.3418C147.834 51.3883 150.044 50.2542 152.363 49.8701C158.26 48.8932 164.224 49.6426 177.17 52.9571C160.546 55.5815 151.396 55.4272 146.456 60.4823L139.332 87.8818L138.134 92.771C142.934 91.5133 146.666 90.8392 150.375 90.3951L164.939 100.355Z" fill="black"/>
<path fill-rule="evenodd" clip-rule="evenodd" d="M176.555 144.65C154.334 160.141 126.372 164.424 84.0878 166.499L83.9898 164.501C126.281 162.426 153.707 158.14 175.411 143.009C197.12 127.875 213.261 101.779 232.617 55.6133L234.461 56.3866C215.093 102.583 198.772 129.162 176.555 144.65Z" fill="url(#paint1_linear_85_23)"/>
<path d="M3.85 203.65C3.85 214.417 3.85 225.183 3.85 235.95H0.5L0.55 200H3.7H3.85C9.45 200 13.4167 200 15.75 200C17.7833 200 19.3167 200.6 20.35 201.8C21.4167 202.967 22 204.5 22.1 206.4C22.1 206.433 22.1 206.483 22.1 206.55C22.1 206.583 22.1 206.617 22.1 206.65C22.1333 208.783 22.1333 211.083 22.1 213.55C22.1 218.483 19.8167 220.917 15.25 220.85L13.4 220.8L13.35 217.5C13.55 217.5 13.8833 217.5 14.35 217.5C14.8167 217.467 15.25 217.45 15.65 217.45C16.7833 217.45 17.6 217.083 18.1 216.35C18.6333 215.617 18.9 214.667 18.9 213.5C18.9333 211.033 18.9167 208.65 18.85 206.35C18.7167 204.483 17.5667 203.55 15.4 203.55C13.0667 203.55 9.21667 203.583 3.85 203.65Z" fill="url(#paint2_linear_85_23)"/>
<path d="M84.2914 217.85C84.2914 217.717 84.2747 217.6 84.2414 217.5C84.4414 217.5 84.7747 217.5 85.2414 217.5C85.7081 217.467 86.1414 217.45 86.5414 217.45C87.6747 217.45 88.4914 217.083 88.9914 216.35C89.5247 215.617 89.7914 214.667 89.7914 213.5C89.8247 211.067 89.8081 208.683 89.7414 206.35C89.6081 204.517 88.4581 203.6 86.2914 203.6C83.9581 203.6 80.1247 203.633 74.7914 203.7C74.7914 214.433 74.7914 225.183 74.7914 235.95H71.4914V200.05H74.5914H74.7914C80.3914 200.05 84.3414 200.05 86.6414 200.05C88.6747 200.05 90.2081 200.65 91.2414 201.85C92.3081 203.017 92.8747 204.533 92.9414 206.4C92.9414 206.433 92.9414 206.5 92.9414 206.6C92.9414 206.633 92.9414 206.667 92.9414 206.7C92.9747 208.833 92.9914 211.133 92.9914 213.6C92.9914 218 91.1414 220.4 87.4414 220.8L94.7914 236L90.8414 235.95L84.2914 222V217.85Z" fill="url(#paint3_linear_85_23)"/>
<path d="M132.54 200H135.84L135.79 236H132.64C132.607 226.267 132.574 216.533 132.54 206.8L123.04 223.45C122.607 223.45 122.157 223.45 121.69 223.45C121.59 223.45 121.49 223.45 121.39 223.45L111.94 206.8C111.907 216.533 111.874 226.267 111.84 236H108.59L108.64 200H111.94L122.19 218L132.54 200.05V200Z" fill="url(#paint4_linear_85_23)"/>
<path d="M293.464 217.85C294.664 219.083 295.264 220.967 295.264 223.5C295.264 225.667 295.281 227.35 295.314 228.55C295.314 228.717 295.331 228.9 295.364 229.1C295.364 231.133 294.831 232.8 293.764 234.1C292.697 235.367 291.114 236 289.014 236H276.914L273.714 235.95L273.764 200H276.914H288.964C291.064 200 292.631 200.617 293.664 201.85C294.731 203.083 295.281 204.667 295.314 206.6C295.314 207.6 295.314 209.467 295.314 212.2C295.314 214.767 294.697 216.65 293.464 217.85ZM288.864 216.15C289.997 216.15 290.814 215.783 291.314 215.05C291.847 214.283 292.114 213.317 292.114 212.15C292.114 210.25 292.097 208.3 292.064 206.3C291.931 204.467 290.781 203.55 288.614 203.55C286.247 203.55 282.381 203.583 277.014 203.65V232.3C282.381 232.333 286.264 232.367 288.664 232.4C290.564 232.4 291.681 231.633 292.014 230.1C292.081 227.9 292.097 225.733 292.064 223.6C292.064 222.433 291.814 221.467 291.314 220.7C290.814 219.933 290.014 219.533 288.914 219.5C288.781 219.5 288.631 219.5 288.464 219.5C288.231 219.5 287.997 219.5 287.764 219.5C287.031 219.467 286.614 219.45 286.514 219.45V216.1C287.047 216.133 287.664 216.133 288.364 216.1C288.531 216.1 288.697 216.117 288.864 216.15Z" fill="url(#paint5_linear_85_23)"/>
<path d="M161.354 200L163.004 206.5L153.604 236H149.854L161.354 200Z" fill="url(#paint6_linear_85_23)"/>
<path d="M161.366 200.098C161.358 200.066 161.354 200.033 161.354 200C163.232 200 164.897 201.209 165.478 202.995L176.204 235.95L172.504 236L163.004 206.5L161.366 200.098Z" fill="url(#paint7_linear_85_23)"/>
<path fill-rule="evenodd" clip-rule="evenodd" d="M57.184 200.05H37.434H36.434L36.334 235.95H37.434H39.634H39.834H57.234V232.7H39.834V219.8L39.784 216.55V203.3H57.184V200.05ZM54.5 219.8H57.184V216.55H54.5V219.8Z" fill="url(#paint8_linear_85_23)"/>
<path fill-rule="evenodd" clip-rule="evenodd" d="M213.536 236L225.286 200H221.436L211.936 229.45L205.536 209.25L203.636 215L205.536 220.85L210.386 235.95L213.536 236ZM200.586 236L197.436 235.95L185.886 200H189.586L198.986 229.45L200.586 236Z" fill="url(#paint9_linear_85_23)"/>
<path fill-rule="evenodd" clip-rule="evenodd" d="M258.4 200L238.6 200L237.5 200V236H238.6H240.8H241H258.4V232.75H241V219.85L240.95 216.6V203.35H258.35L258.4 200ZM255.666 219.85H258.35V216.6H255.666V219.85Z" fill="url(#paint10_linear_85_23)"/>
<path d="M269.371 250.371L272.008 242.022H272.966L276.518 252.978H275.385L272.487 243.994L270.504 250.371H269.371Z" fill="#646464"/>
<path d="M280.022 243.118C280.022 246.404 280.022 249.691 280.022 252.978H279.02V242H279.978H280.022C281.721 242 282.927 242 283.638 242C284.248 242 284.713 242.183 285.033 242.548C285.352 242.898 285.527 243.366 285.556 243.95C285.556 243.965 285.556 243.979 285.556 243.994C285.556 244.009 285.556 244.023 285.556 244.038C285.57 244.695 285.57 245.396 285.556 246.141C285.556 247.631 284.866 248.369 283.486 248.355L282.919 248.333V247.325C282.963 247.325 283.057 247.325 283.203 247.325C283.348 247.325 283.479 247.325 283.595 247.325C284.248 247.325 284.583 246.923 284.597 246.12C284.597 245.375 284.59 244.644 284.575 243.928C284.532 243.373 284.183 243.096 283.53 243.096C282.818 243.096 281.649 243.103 280.022 243.118Z" fill="#646464"/>
<path d="M289.955 243.118C289.955 246.404 289.955 249.691 289.955 252.978H288.953V242H289.912H289.955C291.655 242 292.86 242 293.572 242C294.182 242 294.647 242.183 294.966 242.548C295.286 242.898 295.46 243.366 295.489 243.95C295.489 243.965 295.489 243.979 295.489 243.994C295.489 244.009 295.489 244.023 295.489 244.038C295.504 244.695 295.504 245.396 295.489 246.141C295.489 247.631 294.799 248.369 293.419 248.355L292.853 248.333V247.325C292.896 247.325 292.991 247.325 293.136 247.325C293.281 247.325 293.412 247.325 293.528 247.325C294.182 247.325 294.516 246.923 294.53 246.12C294.53 245.375 294.523 244.644 294.509 243.928C294.465 243.373 294.117 243.096 293.463 243.096C292.751 243.096 291.582 243.103 289.955 243.118Z" fill="#646464"/>
<path d="M269.371 250.371H270.504L269.655 252.978L268.5 253L269.371 250.371Z" fill="#646464"/>
<path d="M5.092 191.28C5.092 191.301 5.08133 191.328 5.06 191.36C5.03867 191.392 4.996 191.451 4.932 191.536C4.868 191.621 4.79333 191.696 4.708 191.76C4.62267 191.824 4.50533 191.883 4.356 191.936C4.21733 191.989 4.068 192.016 3.908 192.016C3.72667 192.016 3.428 192.016 3.012 192.016C2.596 192.016 2.23867 192.021 1.94 192.032C1.47067 192.032 1.11867 191.904 0.884 191.648C0.649333 191.392 0.526667 191.051 0.516 190.624C0.516 190.613 0.521333 190.597 0.532 190.576C0.521333 188.859 0.510667 187.147 0.5 185.44C0.5 185.024 0.617333 184.683 0.852 184.416C1.09733 184.149 1.44933 184.021 1.908 184.032C2.1 184.032 2.436 184.032 2.916 184.032C3.396 184.021 3.72667 184.016 3.908 184.016C4.07867 184.016 4.23333 184.043 4.372 184.096C4.51067 184.149 4.62267 184.213 4.708 184.288C4.79333 184.363 4.868 184.437 4.932 184.512C4.996 184.576 5.03867 184.635 5.06 184.688L5.092 184.768C3.556 184.768 2.516 184.763 1.972 184.752C1.50267 184.752 1.25733 184.949 1.236 185.344L1.252 190.608C1.252 190.629 1.252 190.645 1.252 190.656C1.252 191.083 1.50267 191.296 2.004 191.296L5.092 191.28Z" fill="url(#paint11_linear_85_23)"/>
<path d="M12.5247 187.968V187.888C12.5674 187.888 12.6421 187.888 12.7488 187.888C12.8554 187.888 12.9514 187.888 13.0368 187.888C13.5168 187.888 13.7568 187.595 13.7568 187.008C13.7674 186.453 13.7674 185.92 13.7568 185.408C13.7247 184.992 13.4688 184.784 12.9888 184.784C12.4661 184.795 11.6074 184.805 10.4128 184.816V192.016H9.67675V184H10.4128C11.6608 184 12.5407 184 13.0527 184C13.5114 184 13.8581 184.133 14.0928 184.4C14.3274 184.656 14.4501 184.997 14.4608 185.424C14.4714 185.435 14.4767 185.445 14.4767 185.456C14.4767 185.467 14.4767 185.477 14.4767 185.488C14.4767 185.957 14.4767 186.469 14.4767 187.024C14.4767 188.005 14.0661 188.539 13.2448 188.624L14.8768 192.016H13.9967L12.5247 188.896C12.5247 188.587 12.5247 188.277 12.5247 187.968Z" fill="url(#paint12_linear_85_23)"/>
<path d="M28.9064 189.328L30.6344 184.016H31.3384L33.9464 192.016H33.1144L30.9864 185.456L29.7064 189.344L28.9064 189.328Z" fill="url(#paint13_linear_85_23)"/>
<path d="M37.1188 184.032H41.5187V184.752C40.9108 184.752 40.2974 184.752 39.6787 184.752C39.6787 187.163 39.6787 189.579 39.6787 192H38.9427C38.9427 189.579 38.9427 187.163 38.9427 184.752C38.3347 184.752 37.7214 184.752 37.1027 184.752L37.1188 184.032Z" fill="url(#paint14_linear_85_23)"/>
<path d="M29.7064 189.344L28.9064 189.328L28.0584 192.032L28.9064 192.016L29.7064 189.344Z" fill="url(#paint15_linear_85_23)"/>
<path fill-rule="evenodd" clip-rule="evenodd" d="M23.9218 184.016H19.9505L19.9313 192.016H20.1419H20.5629H20.6012H23.9313V191.292H20.6012V188.417L20.5916 187.693V184.74H23.9218V184.016ZM23.4081 188.417H23.9218V187.693H23.4081V188.417Z" fill="url(#paint16_linear_85_23)"/>
<path fill-rule="evenodd" clip-rule="evenodd" d="M48.9218 184.016H44.9505L44.9313 192.016H45.1419H45.5629H45.6012H48.9313V191.292H45.6012V188.417L45.5916 187.693V184.74H48.9218V184.016ZM48.4081 188.417H48.9218V187.693H48.4081V188.417Z" fill="url(#paint17_linear_85_23)"/>
<defs>
<linearGradient id="paint0_linear_85_23" x1="148" y1="-2.05636e-06" x2="216.673" y2="283.169" gradientUnits="userSpaceOnUse">
<stop stop-color="white"/>
<stop offset="1" stop-opacity="0"/>
</linearGradient>
<linearGradient id="paint1_linear_85_23" x1="282.539" y1="20.5" x2="138.039" y2="188" gradientUnits="userSpaceOnUse">
<stop/>
<stop offset="1" stop-opacity="0"/>
</linearGradient>
<linearGradient id="paint2_linear_85_23" x1="147.932" y1="200" x2="167.5" y2="323" gradientUnits="userSpaceOnUse">
<stop stop-color="white"/>
<stop offset="0.81932" stop-color="#616161" stop-opacity="0"/>
</linearGradient>
<linearGradient id="paint3_linear_85_23" x1="147.932" y1="200" x2="167.5" y2="323" gradientUnits="userSpaceOnUse">
<stop stop-color="white"/>
<stop offset="0.81932" stop-color="#616161" stop-opacity="0"/>
</linearGradient>
<linearGradient id="paint4_linear_85_23" x1="147.932" y1="200" x2="167.5" y2="323" gradientUnits="userSpaceOnUse">
<stop stop-color="white"/>
<stop offset="0.81932" stop-color="#616161" stop-opacity="0"/>
</linearGradient>
<linearGradient id="paint5_linear_85_23" x1="147.932" y1="200" x2="167.5" y2="323" gradientUnits="userSpaceOnUse">
<stop stop-color="white"/>
<stop offset="0.81932" stop-color="#616161" stop-opacity="0"/>
</linearGradient>
<linearGradient id="paint6_linear_85_23" x1="147.932" y1="200" x2="167.5" y2="323" gradientUnits="userSpaceOnUse">
<stop stop-color="white"/>
<stop offset="0.81932" stop-color="#616161" stop-opacity="0"/>
</linearGradient>
<linearGradient id="paint7_linear_85_23" x1="147.932" y1="200" x2="167.5" y2="323" gradientUnits="userSpaceOnUse">
<stop stop-color="white"/>
<stop offset="0.81932" stop-color="#616161" stop-opacity="0"/>
</linearGradient>
<linearGradient id="paint8_linear_85_23" x1="147.932" y1="200" x2="167.5" y2="323" gradientUnits="userSpaceOnUse">
<stop stop-color="white"/>
<stop offset="0.81932" stop-color="#616161" stop-opacity="0"/>
</linearGradient>
<linearGradient id="paint9_linear_85_23" x1="147.932" y1="200" x2="167.5" y2="323" gradientUnits="userSpaceOnUse">
<stop stop-color="white"/>
<stop offset="0.81932" stop-color="#616161" stop-opacity="0"/>
</linearGradient>
<linearGradient id="paint10_linear_85_23" x1="147.932" y1="200" x2="167.5" y2="323" gradientUnits="userSpaceOnUse">
<stop stop-color="white"/>
<stop offset="0.81932" stop-color="#616161" stop-opacity="0"/>
</linearGradient>
<linearGradient id="paint11_linear_85_23" x1="28.756" y1="180.016" x2="54.2864" y2="224.958" gradientUnits="userSpaceOnUse">
<stop stop-color="white"/>
<stop offset="1" stop-color="#BFBFBF"/>
</linearGradient>
<linearGradient id="paint12_linear_85_23" x1="28.756" y1="180.016" x2="54.2864" y2="224.958" gradientUnits="userSpaceOnUse">
<stop stop-color="white"/>
<stop offset="1" stop-color="#BFBFBF"/>
</linearGradient>
<linearGradient id="paint13_linear_85_23" x1="28.756" y1="180.016" x2="54.2864" y2="224.958" gradientUnits="userSpaceOnUse">
<stop stop-color="white"/>
<stop offset="1" stop-color="#BFBFBF"/>
</linearGradient>
<linearGradient id="paint14_linear_85_23" x1="28.756" y1="180.016" x2="54.2864" y2="224.958" gradientUnits="userSpaceOnUse">
<stop stop-color="white"/>
<stop offset="1" stop-color="#BFBFBF"/>
</linearGradient>
<linearGradient id="paint15_linear_85_23" x1="28.756" y1="180.016" x2="54.2864" y2="224.958" gradientUnits="userSpaceOnUse">
<stop stop-color="white"/>
<stop offset="1" stop-color="#BFBFBF"/>
</linearGradient>
<linearGradient id="paint16_linear_85_23" x1="43.3364" y1="179.325" x2="49.7624" y2="187.554" gradientUnits="userSpaceOnUse">
<stop stop-color="white"/>
<stop offset="1" stop-color="#BFBFBF"/>
</linearGradient>
<linearGradient id="paint17_linear_85_23" x1="43.3364" y1="179.325" x2="49.7624" y2="187.554" gradientUnits="userSpaceOnUse">
<stop stop-color="white"/>
<stop offset="1" stop-color="#BFBFBF"/>
</linearGradient>
</defs>
</svg>
