<svg width="296" height="69" viewBox="0 0 296 69" fill="none" xmlns="http://www.w3.org/2000/svg">
<path d="M3.85 19.65C3.85 30.4167 3.85 41.1833 3.85 51.95H0.5L0.55 16H3.85C9.45 16 13.4167 16 15.75 16C17.7833 16 19.3167 16.6 20.35 17.8C21.4167 18.9667 22 20.5 22.1 22.4C22.1 22.4333 22.1 22.4833 22.1 22.55C22.1 22.5833 22.1 22.6167 22.1 22.65C22.1333 24.7833 22.1333 27.0833 22.1 29.55C22.1 34.4833 19.8167 36.9167 15.25 36.85L13.4 36.8L13.35 33.5C13.55 33.5 13.8833 33.5 14.35 33.5C14.8167 33.4667 15.25 33.45 15.65 33.45C16.7833 33.45 17.6 33.0833 18.1 32.35C18.6333 31.6167 18.9 30.6667 18.9 29.5C18.9333 27.0333 18.9167 24.65 18.85 22.35C18.7167 20.4833 17.5667 19.55 15.4 19.55C13.0667 19.55 9.21667 19.5833 3.85 19.65Z" fill="url(#paint0_linear_85_22)"/>
<path d="M84.2914 33.85C84.2914 33.7167 84.2747 33.6 84.2414 33.5C84.4414 33.5 84.7747 33.5 85.2414 33.5C85.7081 33.4667 86.1414 33.45 86.5414 33.45C87.6747 33.45 88.4914 33.0833 88.9914 32.35C89.5247 31.6167 89.7914 30.6667 89.7914 29.5C89.8247 27.0667 89.8081 24.6833 89.7414 22.35C89.6081 20.5167 88.4581 19.6 86.2914 19.6C83.9581 19.6 80.1247 19.6333 74.7914 19.7C74.7914 30.4333 74.7914 41.1833 74.7914 51.95H71.4914V16.05H74.7914C80.3914 16.05 84.3414 16.05 86.6414 16.05C88.6747 16.05 90.2081 16.65 91.2414 17.85C92.3081 19.0167 92.8747 20.5333 92.9414 22.4C92.9414 22.4333 92.9414 22.5 92.9414 22.6C92.9414 22.6333 92.9414 22.6667 92.9414 22.7C92.9747 24.8333 92.9914 27.1333 92.9914 29.6C92.9914 34 91.1414 36.4 87.4414 36.8L94.7914 52L90.8414 51.95L84.2914 38V33.85Z" fill="url(#paint1_linear_85_22)"/>
<path d="M132.54 16H135.84L135.79 52H132.64C132.607 42.2667 132.574 32.5333 132.54 22.8L123.04 39.45C122.607 39.45 122.157 39.45 121.69 39.45C121.59 39.45 121.49 39.45 121.39 39.45L111.94 22.8C111.907 32.5333 111.874 42.2667 111.84 52H108.59L108.64 16H111.94L122.19 34L132.54 16.05V16Z" fill="url(#paint2_linear_85_22)"/>
<path d="M293.464 33.85C294.664 35.0833 295.264 36.9667 295.264 39.5C295.264 41.6667 295.281 43.35 295.314 44.55C295.314 44.7167 295.331 44.9 295.364 45.1C295.364 47.1333 294.831 48.8 293.764 50.1C292.697 51.3667 291.114 52 289.014 52H276.914L273.714 51.95L273.764 16H288.964C291.064 16 292.631 16.6167 293.664 17.85C294.731 19.0833 295.281 20.6667 295.314 22.6C295.314 23.6 295.314 25.4667 295.314 28.2C295.314 30.7667 294.697 32.65 293.464 33.85ZM288.864 32.15C289.997 32.15 290.814 31.7833 291.314 31.05C291.847 30.2833 292.114 29.3167 292.114 28.15C292.114 26.25 292.097 24.3 292.064 22.3C291.931 20.4667 290.781 19.55 288.614 19.55C286.247 19.55 282.381 19.5833 277.014 19.65V48.3C282.381 48.3333 286.264 48.3667 288.664 48.4C290.564 48.4 291.681 47.6333 292.014 46.1C292.081 43.9 292.097 41.7333 292.064 39.6C292.064 38.4333 291.814 37.4667 291.314 36.7C290.814 35.9333 290.014 35.5333 288.914 35.5C288.781 35.5 288.631 35.5 288.464 35.5C288.231 35.5 287.997 35.5 287.764 35.5C287.031 35.4667 286.614 35.45 286.514 35.45V32.1C287.047 32.1333 287.664 32.1333 288.364 32.1C288.531 32.1 288.697 32.1167 288.864 32.15Z" fill="url(#paint3_linear_85_22)"/>
<path d="M161.354 16L163.004 22.5L153.604 52H149.854L161.354 16Z" fill="url(#paint4_linear_85_22)"/>
<path d="M161.366 16.0984C161.358 16.0663 161.354 16.0332 161.354 16C163.232 16 164.897 17.2091 165.478 18.9954L176.204 51.95L172.504 52L163.004 22.5L161.366 16.0984Z" fill="url(#paint5_linear_85_22)"/>
<path fill-rule="evenodd" clip-rule="evenodd" d="M57.184 16.05H36.434L36.334 51.95H57.234V48.7H39.834V35.8L39.784 32.55V19.3H57.184V16.05ZM54.5 35.8H57.184V32.55H54.5V35.8Z" fill="url(#paint6_linear_85_22)"/>
<path fill-rule="evenodd" clip-rule="evenodd" d="M213.536 52L225.286 16H221.436L211.936 45.45L205.536 25.25L203.636 31L205.536 36.85L210.386 51.95L213.536 52ZM200.586 52L197.436 51.95L185.886 16H189.586L198.986 45.45L200.586 52Z" fill="url(#paint7_linear_85_22)"/>
<path fill-rule="evenodd" clip-rule="evenodd" d="M258.4 16H237.5V52H258.4V48.75H241V35.85L240.95 32.6V19.35H258.35L258.4 16ZM255.666 35.85H258.35V32.6H255.666V35.85Z" fill="url(#paint8_linear_85_22)"/>
<path d="M269.371 66.3705L272.008 58.0219H272.966L276.518 68.9781H275.385L272.487 59.994L270.504 66.3705H269.371Z" fill="#646464"/>
<path d="M280.022 59.1175C280.022 62.4044 280.022 65.6912 280.022 68.9781H279.02V58H280.022C281.721 58 282.927 58 283.638 58C284.248 58 284.713 58.1826 285.033 58.5478C285.352 58.8984 285.527 59.3659 285.556 59.9502C285.556 59.9648 285.556 59.9794 285.556 59.994C285.556 60.0086 285.556 60.0232 285.556 60.0378C285.57 60.6952 285.57 61.3964 285.556 62.1414C285.556 63.6315 284.866 64.3692 283.486 64.3546L282.919 64.3327V63.3247C282.963 63.3247 283.057 63.3247 283.203 63.3247C283.348 63.3247 283.479 63.3247 283.595 63.3247C284.248 63.3247 284.583 62.923 284.597 62.1195C284.597 61.3745 284.59 60.6441 284.575 59.9283C284.532 59.3732 284.183 59.0956 283.53 59.0956C282.818 59.0956 281.649 59.1029 280.022 59.1175Z" fill="#646464"/>
<path d="M289.955 59.1175C289.955 62.4044 289.955 65.6912 289.955 68.9781H288.953V58H289.955C291.655 58 292.86 58 293.572 58C294.182 58 294.647 58.1826 294.966 58.5478C295.286 58.8984 295.46 59.3659 295.489 59.9502C295.489 59.9648 295.489 59.9794 295.489 59.994C295.489 60.0086 295.489 60.0232 295.489 60.0378C295.504 60.6952 295.504 61.3964 295.489 62.1414C295.489 63.6315 294.799 64.3692 293.419 64.3546L292.853 64.3327V63.3247C292.896 63.3247 292.991 63.3247 293.136 63.3247C293.281 63.3247 293.412 63.3247 293.528 63.3247C294.182 63.3247 294.516 62.923 294.53 62.1195C294.53 61.3745 294.523 60.6441 294.509 59.9283C294.465 59.3732 294.117 59.0956 293.463 59.0956C292.751 59.0956 291.582 59.1029 289.955 59.1175Z" fill="#646464"/>
<path d="M269.371 66.3705H270.504L269.655 68.9781L268.5 69L269.371 66.3705Z" fill="#646464"/>
<path d="M5.092 7.28C5.092 7.30133 5.08133 7.328 5.06 7.36C5.03867 7.392 4.996 7.45067 4.932 7.536C4.868 7.62133 4.79333 7.696 4.708 7.76C4.62267 7.824 4.50533 7.88267 4.356 7.936C4.21733 7.98933 4.068 8.016 3.908 8.016C3.72667 8.016 3.428 8.016 3.012 8.016C2.596 8.016 2.23867 8.02133 1.94 8.032C1.47067 8.032 1.11867 7.904 0.884 7.648C0.649333 7.392 0.526667 7.05067 0.516 6.624C0.516 6.61333 0.521333 6.59733 0.532 6.576C0.521333 4.85867 0.510667 3.14667 0.5 1.44C0.5 1.024 0.617333 0.682667 0.852 0.416C1.09733 0.149334 1.44933 0.021334 1.908 0.0320005C2.1 0.0320005 2.436 0.0320005 2.916 0.0320005C3.396 0.021334 3.72667 0.0160007 3.908 0.0160007C4.07867 0.0160007 4.23333 0.0426672 4.372 0.0960002C4.51067 0.149334 4.62267 0.213334 4.708 0.288001C4.79333 0.362667 4.868 0.437334 4.932 0.512001C4.996 0.576 5.03867 0.634667 5.06 0.688L5.092 0.768001C3.556 0.768001 2.516 0.762667 1.972 0.752C1.50267 0.752 1.25733 0.949334 1.236 1.344L1.252 6.608C1.252 6.62933 1.252 6.64533 1.252 6.656C1.252 7.08267 1.50267 7.296 2.004 7.296L5.092 7.28Z" fill="url(#paint9_linear_85_22)"/>
<path d="M12.5247 3.968V3.888C12.5674 3.888 12.6421 3.888 12.7488 3.888C12.8554 3.888 12.9514 3.888 13.0368 3.888C13.5168 3.888 13.7568 3.59467 13.7568 3.008C13.7674 2.45333 13.7674 1.92 13.7568 1.408C13.7247 0.992 13.4688 0.784 12.9888 0.784C12.4661 0.794667 11.6074 0.805334 10.4128 0.816V8.016H9.67675V0H10.4128C11.6608 0 12.5407 0 13.0527 0C13.5114 0 13.8581 0.133334 14.0928 0.400001C14.3274 0.656 14.4501 0.997334 14.4608 1.424C14.4714 1.43467 14.4767 1.44533 14.4767 1.456C14.4767 1.46667 14.4767 1.47733 14.4767 1.488C14.4767 1.95733 14.4767 2.46933 14.4767 3.024C14.4767 4.00533 14.0661 4.53867 13.2448 4.624L14.8768 8.016H13.9967L12.5247 4.896C12.5247 4.58667 12.5247 4.27733 12.5247 3.968Z" fill="url(#paint10_linear_85_22)"/>
<path d="M28.9064 5.328L30.6344 0.0160007H31.3384L33.9464 8.016H33.1144L30.9864 1.456L29.7064 5.344L28.9064 5.328Z" fill="url(#paint11_linear_85_22)"/>
<path d="M37.1188 0.0320005H41.5187V0.752C40.9108 0.752 40.2974 0.752 39.6787 0.752C39.6787 3.16267 39.6787 5.57867 39.6787 8H38.9427C38.9427 5.57867 38.9427 3.16267 38.9427 0.752C38.3347 0.752 37.7214 0.752 37.1027 0.752L37.1188 0.0320005Z" fill="url(#paint12_linear_85_22)"/>
<path d="M29.7064 5.344L28.9064 5.328L28.0584 8.032L28.9064 8.016L29.7064 5.344Z" fill="url(#paint13_linear_85_22)"/>
<path fill-rule="evenodd" clip-rule="evenodd" d="M23.9218 0.0159912H19.9505L19.9313 8.01599H23.9313V7.29176H20.6012V4.41711L20.5916 3.69287V0.740225H23.9218V0.0159912ZM23.4081 4.41711H23.9218V3.69287H23.4081V4.41711Z" fill="url(#paint14_linear_85_22)"/>
<path fill-rule="evenodd" clip-rule="evenodd" d="M48.9218 0.0159912H44.9505L44.9313 8.01599H48.9313V7.29176H45.6012V4.41711L45.5916 3.69287V0.740225H48.9218V0.0159912ZM48.4081 4.41711H48.9218V3.69287H48.4081V4.41711Z" fill="url(#paint15_linear_85_22)"/>
<defs>
<linearGradient id="paint0_linear_85_22" x1="148" y1="-9.06983e-05" x2="215.409" y2="221.172" gradientUnits="userSpaceOnUse">
<stop stop-color="white"/>
<stop offset="0.81932" stop-color="#616161" stop-opacity="0"/>
</linearGradient>
<linearGradient id="paint1_linear_85_22" x1="148" y1="-9.06983e-05" x2="215.409" y2="221.172" gradientUnits="userSpaceOnUse">
<stop stop-color="white"/>
<stop offset="0.81932" stop-color="#616161" stop-opacity="0"/>
</linearGradient>
<linearGradient id="paint2_linear_85_22" x1="148" y1="-9.06983e-05" x2="215.409" y2="221.172" gradientUnits="userSpaceOnUse">
<stop stop-color="white"/>
<stop offset="0.81932" stop-color="#616161" stop-opacity="0"/>
</linearGradient>
<linearGradient id="paint3_linear_85_22" x1="148" y1="-9.06983e-05" x2="215.409" y2="221.172" gradientUnits="userSpaceOnUse">
<stop stop-color="white"/>
<stop offset="0.81932" stop-color="#616161" stop-opacity="0"/>
</linearGradient>
<linearGradient id="paint4_linear_85_22" x1="148" y1="-9.06983e-05" x2="215.409" y2="221.172" gradientUnits="userSpaceOnUse">
<stop stop-color="white"/>
<stop offset="0.81932" stop-color="#616161" stop-opacity="0"/>
</linearGradient>
<linearGradient id="paint5_linear_85_22" x1="148" y1="-9.06983e-05" x2="215.409" y2="221.172" gradientUnits="userSpaceOnUse">
<stop stop-color="white"/>
<stop offset="0.81932" stop-color="#616161" stop-opacity="0"/>
</linearGradient>
<linearGradient id="paint6_linear_85_22" x1="148" y1="-9.06983e-05" x2="215.409" y2="221.172" gradientUnits="userSpaceOnUse">
<stop stop-color="white"/>
<stop offset="0.81932" stop-color="#616161" stop-opacity="0"/>
</linearGradient>
<linearGradient id="paint7_linear_85_22" x1="148" y1="-9.06983e-05" x2="215.409" y2="221.172" gradientUnits="userSpaceOnUse">
<stop stop-color="white"/>
<stop offset="0.81932" stop-color="#616161" stop-opacity="0"/>
</linearGradient>
<linearGradient id="paint8_linear_85_22" x1="148" y1="-9.06983e-05" x2="215.409" y2="221.172" gradientUnits="userSpaceOnUse">
<stop stop-color="white"/>
<stop offset="0.81932" stop-color="#616161" stop-opacity="0"/>
</linearGradient>
<linearGradient id="paint9_linear_85_22" x1="172.61" y1="-34.2251" x2="421.799" y2="276.799" gradientUnits="userSpaceOnUse">
<stop stop-color="white"/>
<stop offset="1" stop-color="#BFBFBF"/>
</linearGradient>
<linearGradient id="paint10_linear_85_22" x1="172.61" y1="-34.2251" x2="421.799" y2="276.799" gradientUnits="userSpaceOnUse">
<stop stop-color="white"/>
<stop offset="1" stop-color="#BFBFBF"/>
</linearGradient>
<linearGradient id="paint11_linear_85_22" x1="172.61" y1="-34.2251" x2="421.799" y2="276.799" gradientUnits="userSpaceOnUse">
<stop stop-color="white"/>
<stop offset="1" stop-color="#BFBFBF"/>
</linearGradient>
<linearGradient id="paint12_linear_85_22" x1="172.61" y1="-34.2251" x2="421.799" y2="276.799" gradientUnits="userSpaceOnUse">
<stop stop-color="white"/>
<stop offset="1" stop-color="#BFBFBF"/>
</linearGradient>
<linearGradient id="paint13_linear_85_22" x1="172.61" y1="-34.2251" x2="421.799" y2="276.799" gradientUnits="userSpaceOnUse">
<stop stop-color="white"/>
<stop offset="1" stop-color="#BFBFBF"/>
</linearGradient>
<linearGradient id="paint14_linear_85_22" x1="43.3364" y1="-4.67481" x2="49.7624" y2="3.55352" gradientUnits="userSpaceOnUse">
<stop stop-color="white"/>
<stop offset="1" stop-color="#BFBFBF"/>
</linearGradient>
<linearGradient id="paint15_linear_85_22" x1="43.3364" y1="-4.67481" x2="49.7624" y2="3.55352" gradientUnits="userSpaceOnUse">
<stop stop-color="white"/>
<stop offset="1" stop-color="#BFBFBF"/>
</linearGradient>
</defs>
</svg>